<mxfile host="app.diagrams.net" modified="2024-04-05T11:23:36.208Z" agent="Mozilla/5.0 (Windows NT 10.0; Win64; x64) AppleWebKit/537.36 (KHTML, like Gecko) Chrome/122.0.0.0 Safari/537.36" version="24.2.2" etag="y1AEHjNjKm1QCa-N_mJq" type="github">
  <diagram name="第 1 页" id="y74rL2vR_3r3dd6qTDOM">
    <mxGraphModel>
      <root>
        <mxCell id="0" />
        <mxCell id="1" parent="0" />
      </root>
    </mxGraphModel>
  </diagram>
</mxfile>
